<svg width="42" height="42" viewBox="0 0 42 42" fill="none" xmlns="http://www.w3.org/2000/svg">
<circle cx="21" cy="21" r="21" fill="#EBE8E8"/>
<path d="M29.3336 20.141V21.8577C29.3336 22.316 28.9669 22.691 28.5003 22.7077H26.8669C25.9669 22.7077 25.1419 22.0493 25.0669 21.1493C25.0169 20.6243 25.2169 20.1327 25.5669 19.791C25.8753 19.4743 26.3003 19.291 26.7669 19.291H28.5003C28.9669 19.3077 29.3336 19.6827 29.3336 20.141Z" fill="#363A3F"/>
<path d="M28.0584 23.9583H26.8667C25.2834 23.9583 23.9501 22.7667 23.8167 21.25C23.7417 20.3833 24.0584 19.5167 24.6917 18.9C25.2251 18.35 25.9667 18.0417 26.7667 18.0417H28.0584C28.3001 18.0417 28.5001 17.8417 28.4751 17.6C28.2917 15.575 26.9501 14.1917 24.9584 13.9583C24.7584 13.925 24.5501 13.9167 24.3334 13.9167H16.8334C16.6001 13.9167 16.3751 13.9333 16.1584 13.9667C14.0334 14.2333 12.6667 15.8167 12.6667 18.0833V23.9167C12.6667 26.2167 14.5334 28.0833 16.8334 28.0833H24.3334C26.6667 28.0833 28.2751 26.625 28.4751 24.4C28.5001 24.1583 28.3001 23.9583 28.0584 23.9583ZM21.8334 19.125H16.8334C16.4917 19.125 16.2084 18.8417 16.2084 18.5C16.2084 18.1583 16.4917 17.875 16.8334 17.875H21.8334C22.1751 17.875 22.4584 18.1583 22.4584 18.5C22.4584 18.8417 22.1751 19.125 21.8334 19.125Z" fill="#363A3F"/>
</svg>
