<svg width="42" height="42" viewBox="0 0 42 42" fill="none" xmlns="http://www.w3.org/2000/svg">
<circle cx="21" cy="21" r="21" fill="#4E5257"/>
<path d="M29.3335 20.141V21.8577C29.3335 22.316 28.9668 22.691 28.5001 22.7077H26.8668C25.9668 22.7077 25.1418 22.0493 25.0668 21.1493C25.0168 20.6243 25.2168 20.1327 25.5668 19.791C25.8751 19.4743 26.3001 19.291 26.7668 19.291H28.5001C28.9668 19.3077 29.3335 19.6827 29.3335 20.141Z" fill="#C8EE44"/>
<path d="M28.0583 23.9583H26.8666C25.2833 23.9583 23.95 22.7667 23.8166 21.25C23.7416 20.3833 24.0583 19.5167 24.6916 18.9C25.225 18.35 25.9666 18.0417 26.7666 18.0417H28.0583C28.3 18.0417 28.5 17.8417 28.475 17.6C28.2916 15.575 26.95 14.1917 24.9583 13.9583C24.7583 13.925 24.55 13.9167 24.3333 13.9167H16.8333C16.6 13.9167 16.375 13.9333 16.1583 13.9667C14.0333 14.2333 12.6666 15.8167 12.6666 18.0833V23.9167C12.6666 26.2167 14.5333 28.0833 16.8333 28.0833H24.3333C26.6666 28.0833 28.275 26.625 28.475 24.4C28.5 24.1583 28.3 23.9583 28.0583 23.9583ZM21.8333 19.125H16.8333C16.4916 19.125 16.2083 18.8417 16.2083 18.5C16.2083 18.1583 16.4916 17.875 16.8333 17.875H21.8333C22.175 17.875 22.4583 18.1583 22.4583 18.5C22.4583 18.8417 22.175 19.125 21.8333 19.125Z" fill="#C8EE44"/>
</svg>
