<svg width="16" height="12" viewBox="0 0 16 12" fill="none" xmlns="http://www.w3.org/2000/svg">
<path d="M14.15 4.33333H15C15.4583 4.33333 15.8333 3.95833 15.8333 3.5V3.13333C15.8333 1.40833 14.425 0 12.7 0H3.13333C2.425 0 1.775 0.233334 1.25 0.633334C0.491667 1.2 0 2.10833 0 3.13333V8.74167C0 10.4667 1.40833 11.875 3.13333 11.875H12.7C14.425 11.875 15.8333 10.4667 15.8333 8.74167V8.58333C15.8333 8.125 15.4583 7.75 15 7.75H14.275C13.475 7.75 12.7083 7.25833 12.5 6.48333C12.325 5.85 12.5333 5.24167 12.95 4.83333C13.2583 4.51667 13.6833 4.33333 14.15 4.33333ZM9.58333 4.16667H3.75C3.40833 4.16667 3.125 3.88333 3.125 3.54167C3.125 3.2 3.40833 2.91667 3.75 2.91667H9.58333C9.925 2.91667 10.2083 3.2 10.2083 3.54167C10.2083 3.88333 9.925 4.16667 9.58333 4.16667Z" fill="#000000"/>
</svg>
